<?xml version="1.0" encoding="UTF-8" standalone="no"?>
<!-- Created with Inkscape (http://www.inkscape.org/) -->

<svg
   version="1.1"
   id="svg1"
   width="100%"
   height="100%"
   viewBox="0 0 571.98438 230"
   sodipodi:docname="sn,x1000-pad,750x1000,f8f8f8.u5.svg"
   xml:space="preserve"
   inkscape:version="1.3.2 (091e20e, 2023-11-25)"
   xmlns:inkscape="http://www.inkscape.org/namespaces/inkscape"
   xmlns:sodipodi="http://sodipodi.sourceforge.net/DTD/sodipodi-0.dtd"
   xmlns="http://www.w3.org/2000/svg"
   xmlns:svg="http://www.w3.org/2000/svg"><defs
     id="defs1" /><sodipodi:namedview
     id="namedview1"
     pagecolor="#ffffff"
     bordercolor="#000000"
     borderopacity="0.25"
     inkscape:showpageshadow="2"
     inkscape:pageopacity="0.0"
     inkscape:pagecheckerboard="0"
     inkscape:deskcolor="#d1d1d1"
     inkscape:zoom="0.6675088"
     inkscape:cx="394.0023"
     inkscape:cy="170.03521"
     inkscape:window-width="1440"
     inkscape:window-height="872"
     inkscape:window-x="0"
     inkscape:window-y="0"
     inkscape:window-maximized="0"
     inkscape:current-layer="g1" /><g
     inkscape:groupmode="layer"
     inkscape:label="Image"
     id="g1"
     transform="translate(-104.87017,-340.41714)"><path
       d="m 105.31585,567.88652 c -1.2574,-2.75967 0.34771,-37.93748 2.30283,-50.46938 4.11488,-26.37549 8.07458,-43.53739 14.53576,-63 11.74498,-35.37866 27.477,-65.52027 50.39013,-96.54442 12.67798,-17.16587 16.76841,-20.11239 21.10877,-15.20558 2.34921,2.65581 22.52949,42.03205 85.81334,167.44103 6.15892,12.20507 11.87592,22.75363 12.70444,23.44124 1.2135,1.00711 2.99718,0.91201 9.17352,-0.48913 33.19851,-7.5313 41.36195,-8.95553 64.16711,-11.19483 30.80161,-3.0245 66.52616,-1.15822 99,5.17183 7.71799,1.50444 29.3213,6.79846 32.11108,7.869 0.86267,0.33103 2.04878,0.0189 2.63579,-0.69363 0.58701,-0.71253 4.96586,-11.64551 9.73079,-24.29551 8.45414,-22.44418 10.92125,-28.92093 12.57033,-33 0.4447,-1.1 3.94168,-9.875 7.77107,-19.5 17.90388,-45.00063 35.55148,-77.56919 54.9988,-101.5 8.17243,-10.05653 13.83754,-15.5 16.13114,-15.5 0.97971,0 2.96076,0.92778 4.40235,2.06173 3.05163,2.40042 12.24777,13.61373 18.81188,22.93827 6.49066,9.2202 18.75662,33.64447 20.44642,40.71338 0.36637,1.53264 0.99073,3.23662 1.38747,3.78662 1.2076,1.67412 8.69002,29.24452 11.39852,42 2.49143,11.73328 6.81562,35.53784 8.08358,44.5 0.35017,2.475 1.06042,6.75 1.57834,9.5 0.51792,2.75 1.86658,10.625 2.99702,17.5 2.65784,16.16429 4.55181,27.02487 6.0164,34.5 1.74897,8.9265 1.7026,11.89539 -0.19168,12.27342 -0.99672,0.19891 -1.86779,-0.56148 -2.26247,-1.97499 -1.40831,-5.04376 -7.68324,-33.15916 -10.5563,-47.29843 -15.9175,-78.33533 -21.1113,-96.75636 -35.15651,-124.6909 -6.84918,-13.62234 -22.17651,-35.81244 -25.74185,-37.26768 -1.59636,-0.65158 -3.082,1.00343 -12.08131,13.45858 -14.50331,20.07277 -28.85648,47.35918 -42.87054,81.5 -6.50873,15.85647 -9.4345,23.49486 -22.40761,58.5 -11.25445,30.36773 -12.73942,33.15881 -19.20378,36.09457 -5.23858,2.37908 -8.35451,2.34083 -17.59893,-0.21599 -25.34327,-7.00947 -45.93982,-10.3729 -72.75,-11.88014 -35.53108,-1.9975 -68.0231,1.35365 -108.25,11.16466 -10.97915,2.67773 -13.01868,2.90898 -16.76313,1.9007 -8.81074,-2.37251 -7.81377,-0.63896 -56.11573,-97.57494 -24.79919,-49.76887 -45.65907,-90.47659 -46.35529,-90.4616 -1.94368,0.0419 -20.06202,24.27325 -28.8273,38.55352 -28.83786,46.9822 -46.01901,101.22153 -48.43953,152.91922 -0.68515,14.6335 -1.10112,17.5 -2.53951,17.5 -0.55131,0 -1.52125,-1.13878 -2.15541,-2.53062 z"
       id="path2"
       sodipodi:nodetypes="ssssssssssssssssssssssssssssssssssssssssssssscc" /></g></svg>
